<svg xmlns="http://www.w3.org/2000/svg" viewBox="0 0 100 100" width="200" height="200">
  <rect width="100" height="100" fill="#000000" />
  <g fill="none" stroke="#FFFFFF" stroke-width="2" stroke-linecap="round" stroke-linejoin="round">
    <path d="M 46 18 Q 18 38 23 72 C 25 95, 82 95, 78 72 Q 72 38 54 18" stroke-width="2.2"/>
    <path d="M 44 20 Q 20 40 25 70 C 27 92, 80 92, 76 70 Q 70 40 56 20" stroke-width="1.5" stroke-dasharray="3 3"/> <path d="M 44 20 C 44 13, 56 13, 56 20 C 56 27, 44 27, 44 20 Z" stroke-width="2.5" />
    <path d="M 46 21 C 46 16, 54 16, 54 21 C 54 26, 46 26, 46 21 Z" stroke-width="1.2"/>
    <path d="M 48 20 L 52 20" stroke-width="0.8"/>

    <path d="M 28 48 L 78 88 M 24 60 L 68 95 M 22 72 L 55 98 M 38 38 L 83 75" stroke-width="1.2" stroke-opacity="0.8"/>
    <path d="M 78 48 L 28 88 M 80 60 L 38 95 M 82 72 L 55 98 M 68 38 L 22 75" stroke-width="1.2" stroke-opacity="0.8"/>

    <circle cx="50" cy="55" r="1.5" fill="#FFFFFF" />
    <circle cx="65" cy="68" r="1.8" fill="#FFFFFF" />
    <circle cx="40" cy="80" r="1.6" fill="#FFFFFF" />
    <circle cx="55" cy="90" r="1.4" fill="#FFFFFF" />
    <circle cx="35" cy="65" r="1.3" fill="#FFFFFF" />

    <path d="M 30 85 Q 50 90 70 85" stroke-width="1" stroke-dasharray="1 1"/>
  </g>
</svg>
