<svg xmlns="http://www.w3.org/2000/svg" viewBox="0 0 100 100" width="200" height="200">
  <rect width="100" height="100" fill="#000000" />
  <g fill="none" stroke="#FFFFFF" stroke-width="2" stroke-linecap="round" stroke-linejoin="round">
    <path d="M 18 30 Q 50 22 82 32" />
    <path d="M 16 33 Q 48 26 84 30" />
    <path d="M 18 30 Q 50 40 82 32" />
    <path d="M 16 33 Q 50 45 84 30" />
    <path d="M 20 70 Q 50 62 78 72" />
    <path d="M 22 72 Q 50 82 79 70" />
    <path d="M 19 74 Q 48 85 81 68" />
    <path d="M 18 30 Q 12 50 20 70 M 16 33 Q 16 52 19 74" />
    <path d="M 82 32 Q 88 50 78 72 M 84 30 Q 82 52 81 68" />
    <path d="M 19 32 L 28 68 L 38 35 L 48 70 L 58 32 L 68 69 L 80 32" />
    <path d="M 22 36 L 30 70 L 35 30 L 45 68 L 55 38 L 65 71 L 78 35" stroke-width="1.5"/>
    <path d="M 25 45 L 28 55 M 50 40 L 52 50" stroke-width="1"/>
    <path d="M 5 20 Q 20 23 35 25 M 6 17 Q 20 20 34 23" />
    <path d="M 2 18 C 2 12, 10 12, 10 18 C 10 24, 2 24, 2 18 Z" fill="#FFFFFF"/>
  </g>
</svg>
