<svg xmlns="http://www.w3.org/2000/svg" viewBox="0 0 100 100" width="200" height="200">
  <rect width="100" height="100" fill="#000000" />
  <g fill="none" stroke="#FFFFFF" stroke-width="2" stroke-linecap="round" stroke-linejoin="round">
    <path d="M 12 40 C 30 32, 70 32, 88 40 C 70 48, 30 48, 12 40" />
    <path d="M 10 42 C 28 35, 72 35, 90 42 C 72 50, 28 50, 10 42" />
    <path d="M 15 65 C 30 58, 70 58, 85 65 C 70 72, 30 72, 15 65" />
    <path d="M 13 67 C 28 60, 72 60, 87 67" />
    <path d="M 12 40 Q 9 52 15 65 M 10 42 Q 13 52 13 67" />
    <path d="M 88 40 Q 91 52 85 65 M 90 42 Q 87 52 87 67" />
    <path d="M 25 43 L 26 62 M 28 42 L 24 64" />
    <path d="M 45 44 L 46 66 M 47 43 L 44 65" />
    <path d="M 65 44 L 64 66 M 67 43 L 66 65" />
    <path d="M 15 45 L 85 60" stroke-width="1" stroke-dasharray="3 3"/>
    <path d="M 6 20 L 50 40 M 8 17 L 48 37" />
    <path d="M 94 15 L 45 38 M 92 18 L 43 40" />
  </g>
</svg>
