<svg xmlns="http://www.w3.org/2000/svg" viewBox="0 0 100 100" width="200" height="200">
  <rect width="100" height="100" fill="#000000" />
  <g fill="none" stroke="#FFFFFF" stroke-width="2" stroke-linecap="round" stroke-linejoin="round">
    <path d="M 15 75 Q 50 95 85 75 Q 50 60 15 75" />
    <path d="M 12 73 Q 50 100 88 73 Q 50 55 12 73" />
    <path d="M 15 75 Q 35 45 45 30 M 12 73 Q 32 42 42 28" />
    <path d="M 85 75 Q 65 45 55 30 M 88 73 Q 68 42 58 28" />
    <path d="M 42 28 Q 50 22 58 28 M 45 30 Q 50 25 55 30" />
    <path d="M 48 26 L 45 5 M 52 26 L 55 5" /> <path d="M 85 15 L 60 55 M 88 12 L 63 53" stroke-width="2.5"/>
    <path d="M 8 60 Q 2 70 8 85 M 92 60 Q 98 70 92 85" stroke-width="1.5" stroke-dasharray="4 4"/>
  </g>
</svg>
