<svg xmlns="http://www.w3.org/2000/svg" viewBox="0 0 100 100" width="200" height="200">
  <rect width="100" height="100" fill="#000000" />
  <g fill="none" stroke="#FFFFFF" stroke-width="2" stroke-linecap="round" stroke-linejoin="round">
    <path d="M 30 30 C 30 10, 70 10, 70 30 C 70 50, 30 50, 30 30" />
    <path d="M 27 32 C 27 5, 73 5, 73 32 C 73 55, 27 55, 27 32" />
    <path d="M 35 15 L 65 45 M 45 12 L 70 35 M 30 25 L 55 48" stroke-width="1"/>
    <path d="M 65 15 L 35 45 M 55 12 L 30 35 M 70 25 L 45 48" stroke-width="1"/>
    <path d="M 30 30 Q 50 35 70 30 M 35 20 Q 50 25 65 20" stroke-width="1"/>
    <path d="M 35 50 Q 50 55 65 50 M 33 53 Q 50 58 67 53" />
    <path d="M 38 52 L 43 90 C 43 95, 57 95, 57 90 L 62 52" />
    <path d="M 35 55 L 40 92 M 65 55 L 60 92" />
    <path d="M 50 93 Q 45 105 60 98 Q 75 90 70 75" />
    <path d="M 48 93 Q 43 108 62 100 Q 78 92 72 73" />
  </g>
</svg>
