<svg xmlns="http://www.w3.org/2000/svg" viewBox="0 0 100 100" width="200" height="200">
  <rect width="100" height="100" fill="#000000" />
  <g fill="none" stroke="#FFFFFF" stroke-width="2" stroke-linecap="round" stroke-linejoin="round">
    <path d="M 22 25 L 72 65 M 20 28 L 70 68" /> <path d="M 32 15 L 82 55 M 34 12 L 84 52" /> <path d="M 22 25 Q 15 22 32 15 M 20 28 Q 12 25 34 12" />
    <path d="M 72 65 Q 85 75 82 55 M 70 68 Q 88 78 84 52" />
    <path d="M 28 26 Q 32 30 38 20 M 27 28 L 37 22" />
    <path d="M 45 40 Q 50 45 55 35 M 44 42 L 54 37" />
    <path d="M 62 55 Q 68 60 72 50 M 61 57 L 71 52" />
    <path d="M 12 18 Q 8 12 15 8 M 5 25 Q 8 18 15 15" stroke-width="1.5"/>
    <path d="M 88 82 Q 95 88 85 92 M 95 75 Q 92 82 85 85" stroke-width="1.5"/>
    <path d="M 10 35 L 10 35 M 15 45 L 15 45 M 85 65 L 85 65 M 90 55 L 90 55" stroke-width="3"/>
  </g>
</svg>
